<svg xmlns="http://www.w3.org/2000/svg" width="1200" height="1200" viewBox="0 0 900 900" preserveAspectRatio="xMidYMid meet" fill="#010451"><path d="M0 450v450h450 450V450 0H450 0v450zm501.3-288.6l18.7 19.4v38.6V258l-38.2-.2-38.3-.3-.3-19.3-.2-19.2h-96-96v38.5V296h115.9 115.9l18.6 19.4 18.6 19.4v77.3 77.4l-18.7 18.7-18.8 18.8H347 211.5l-18.7-18.7-18.8-18.8v-38.7V412h38.5H251v19 19h96 96v-38-38H327.7 212.3l-19.1-13.8-19.1-13.7-.1-82.8v-82.9l18.8-19.4 18.7-19.3H347h135.5l18.8 19.3zM679 334.5V527h-38.5H602V334.5 142h38.5H679v192.5zM240.3 603.4l7.7 8.4v15.1V642h-16-16v-7.5-7.5h-39-39v47 47h39 39v-13-13h-19.5H177v-16-16h35.5H248v37.2 37.3l-7.7 7.7-7.8 7.8H177h-55.5l-7.7-7.7-7.8-7.8v-63.2V611l7.6-8 7.7-8H177h55.7l7.6 8.4zM420 674v79h-15.5H389v-23.5V706h-39-39v23.5V753h-16-16v-55.1-55.1l23.2-23.9 23.2-23.9h47.3H420v79zm92.2-42.5l27.1 37.9c1.2 1.7 3.9-1.7 29.1-36.2l27.8-38.2h15.4H627v79 79h-16-16l-.2-52.5-.3-52.5-19.9 29.5-20 29.5H541h-13.5L507 677.4l-20.5-29.7-.3 52.7-.2 52.6h-16-16v-79-79l16.2.2 16.2.3 25.8 36zM794 611v16h-51-51v15.5V658h47 47v16 16h-47-47v15.5V721h51 51v16 16h-67-67v-79-79h67 67v16zm-467.9 31.7L311 658.5v7.7 7.8h39 39v-23.5V627h-23.9-23.9l-15.1 15.7z"/></svg>